<svg width="1537" height="221" viewBox="0 0 1537 221" fill="none" xmlns="http://www.w3.org/2000/svg">
<path fill-rule="evenodd" clip-rule="evenodd" d="M10 10.8958C41.668 10.7288 73.335 10.8958 105 11.3958C137.165 17.5688 154.665 37.0688 157.5 69.8958C160.393 91.3198 157.06 111.653 147.5 130.896C133.62 150.319 114.62 159.652 90.5 158.896C86.689 157.955 82.855 157.455 79 157.396C93.856 168.128 110.523 174.128 129 175.396C136.659 175.896 144.326 176.062 152 175.896C152.167 187.234 152 198.568 151.5 209.896C92.599 208.767 56.599 179.434 43.5 121.896C42.594 140.93 42.927 159.93 44.5 178.896C45.876 189.859 49.709 199.859 56 208.896C40.681 209.895 25.348 210.229 10 209.896C10 143.563 10 77.2288 10 10.8958ZM43 43.8958C62.003 43.7288 81.003 43.8958 100 44.3958C111.79 46.5378 119.29 53.3708 122.5 64.8958C125.833 77.2288 125.833 89.5628 122.5 101.896C116.833 115.329 106.666 122.829 92 124.396C75.235 127.757 62.402 122.257 53.5 107.896C47.947 97.5698 44.614 86.5698 43.5 74.8958C43 64.5678 42.834 54.2348 43 43.8958Z" fill="#BA8350"/>
<path fill-rule="evenodd" clip-rule="evenodd" d="M207.521 55.8507C247.75 51.5347 275.584 67.8677 291.021 104.851C292.338 109.451 293.338 114.117 294.021 118.851C294.521 146.516 294.688 174.182 294.521 201.851C278.84 202.184 263.173 201.85 247.521 200.851C253.567 192.434 257.067 183.101 258.021 172.851C251.097 190.775 238.597 202.942 220.521 209.351C201.602 212.308 187.435 205.474 178.021 188.851C169.588 170.398 168.255 151.398 174.021 131.851C184.121 105.718 202.621 96.5507 229.521 104.351C243.515 110.012 254.015 119.512 261.021 132.851C260.288 98.4687 242.788 83.9687 208.521 89.3507C198.441 90.4327 189.107 93.5997 180.521 98.8507C179.355 87.1987 179.188 75.5317 180.021 63.8507C188.989 60.1537 198.156 57.4877 207.521 55.8507ZM217.521 132.851C233.656 132.085 246.656 138.085 256.521 150.851C250.243 163.63 240.576 172.797 227.521 178.351C214.225 179.41 206.392 173.243 204.021 159.851C202.705 147.816 207.205 138.816 217.521 132.851Z" fill="#BA8350"/>
<path fill-rule="evenodd" clip-rule="evenodd" d="M306.583 10C317.583 10 328.583 10 339.583 10C339.416 49.001 339.583 88.001 340.083 127C357.554 108.528 375.388 90.362 393.583 72.5C409.25 71.833 424.916 71.833 440.583 72.5C418.611 95.472 396.278 118.139 373.583 140.5C395.735 163.486 418.068 186.319 440.583 209C424.927 210.166 409.26 210.333 393.583 209.5C379.446 194.362 364.946 179.529 350.083 165C346.75 168.333 343.416 171.667 340.083 175C339.583 186.662 339.416 198.329 339.583 210C328.583 210 317.583 210 306.583 210C306.583 143.333 306.583 76.667 306.583 10Z" fill="#BA8350"/>
<path fill-rule="evenodd" clip-rule="evenodd" d="M496.783 64.6378C515.982 62.9408 534.648 65.2748 552.783 71.6378C554.116 83.6378 554.116 95.6378 552.783 107.638C544.192 102.385 534.858 99.2188 524.783 98.1378C514.783 97.4708 504.783 97.4708 494.783 98.1378C486.195 99.3078 484.195 103.308 488.783 110.138C501.142 115.592 513.809 120.258 526.783 124.138C557.01 136.822 565.177 157.989 551.283 187.638C544.768 196.478 536.268 202.645 525.783 206.138C506.616 211.315 487.283 211.315 467.783 206.138C463.663 205.319 459.829 203.819 456.283 201.638C455.45 189.957 455.617 178.29 456.783 166.638C464.631 171.867 473.298 175.034 482.783 176.138C491.45 176.805 500.116 176.805 508.783 176.138C519.263 174.681 524.096 168.847 523.283 158.638C519.857 153.832 515.357 150.332 509.783 148.138C500.163 144.983 490.496 141.983 480.783 139.138C452.819 129.056 445.652 110.89 459.283 84.6378C469.515 73.6068 482.015 66.9398 496.783 64.6378Z" fill="#BA8350"/>
<path fill-rule="evenodd" clip-rule="evenodd" d="M569.847 10.0205C580.847 10.0205 591.847 10.0205 602.847 10.0205C602.68 45.0225 602.847 80.0225 603.347 115.021C606.473 97.5945 614.639 83.0945 627.847 71.5205C642.277 62.6905 657.277 61.6905 672.847 68.5205C690.528 80.3455 701.361 96.8455 705.347 118.021C706.792 148.655 707.292 179.322 706.847 210.021C695.847 210.021 684.847 210.021 673.847 210.021C674.014 183.352 673.847 156.686 673.347 130.021C672.192 105.855 659.692 95.0215 635.847 97.5205C624.228 103.14 616.062 111.974 611.347 124.021C607.106 134.986 604.439 146.32 603.347 158.021C602.847 175.351 602.68 192.684 602.847 210.021C591.847 210.021 580.847 210.021 569.847 210.021C569.847 143.354 569.847 76.6875 569.847 10.0205Z" fill="#BA8350"/>
<path fill-rule="evenodd" clip-rule="evenodd" d="M756.016 55.8507C796.245 51.5347 824.076 67.8677 839.516 104.851C840.836 109.451 841.836 114.117 842.516 118.851C843.016 146.516 843.186 174.182 843.016 201.851C827.336 202.184 811.668 201.85 796.016 200.851C802.062 192.434 805.562 183.101 806.516 172.851C799.592 190.775 787.092 202.942 769.016 209.351C750.097 212.308 735.93 205.474 726.516 188.851C718.083 170.398 716.75 151.398 722.516 131.851C732.616 105.718 751.116 96.5507 778.016 104.351C792.01 110.012 802.51 119.512 809.516 132.851C808.783 98.4687 791.283 83.9687 757.016 89.3507C746.936 90.4327 737.602 93.5997 729.016 98.8507C727.85 87.1987 727.683 75.5317 728.516 63.8507C737.484 60.1537 746.651 57.4877 756.016 55.8507ZM766.016 132.851C782.151 132.085 795.151 138.085 805.016 150.851C798.738 163.63 789.071 172.797 776.016 178.351C762.72 179.41 754.887 173.243 752.516 159.851C751.2 147.816 755.7 138.816 766.016 132.851Z" fill="#BA8350"/>
<path fill-rule="evenodd" clip-rule="evenodd" d="M855.08 10.0205C866.08 10.0205 877.08 10.0205 888.08 10.0205C888.08 76.6875 888.08 143.354 888.08 210.021C877.08 210.021 866.08 210.021 855.08 210.021C855.08 143.354 855.08 76.6875 855.08 10.0205Z" fill="#BA8350"/>
<path fill-rule="evenodd" clip-rule="evenodd" d="M952.893 64.3704C994.883 61.2034 1020.05 80.2034 1028.39 121.37C1032.69 147.502 1026.69 170.836 1010.39 191.37C989.273 210.337 965.443 214.837 938.893 204.87C917.173 193.616 904.673 175.783 901.393 151.37C896.563 121.513 905.063 96.3464 926.893 75.8704C934.843 70.1744 943.513 66.3414 952.893 64.3704ZM957.893 97.3704C979.443 96.3974 991.943 106.731 995.393 128.37C998.133 145.494 993.293 159.994 980.893 171.87C964.643 180.431 951.143 177.265 940.393 162.37C931.223 143.971 931.883 125.971 942.393 108.37C946.553 103.06 951.723 99.3944 957.893 97.3704Z" fill="#BA8350"/>
<path fill-rule="evenodd" clip-rule="evenodd" d="M1041.74 10C1052.74 10 1063.74 10 1074.74 10C1074.57 49.001 1074.74 88.001 1075.24 127C1092.71 108.528 1110.54 90.362 1128.74 72.5C1144.41 71.833 1160.07 71.833 1175.74 72.5C1153.77 95.472 1131.44 118.139 1108.74 140.5C1130.89 163.486 1153.23 186.319 1175.74 209C1160.08 210.166 1144.42 210.333 1128.74 209.5C1114.6 194.362 1100.1 179.529 1085.24 165C1081.91 168.333 1078.57 171.667 1075.24 175C1074.74 186.662 1074.57 198.329 1074.74 210C1063.74 210 1052.74 210 1041.74 210C1041.74 143.333 1041.74 76.667 1041.74 10Z" fill="#BA8350"/>
<path fill-rule="evenodd" clip-rule="evenodd" d="M1224.75 55.8507C1264.98 51.5347 1292.81 67.8677 1308.25 104.851C1309.57 109.451 1310.57 114.117 1311.25 118.851C1311.75 146.516 1311.92 174.182 1311.75 201.851C1296.07 202.184 1280.4 201.85 1264.75 200.851C1270.8 192.434 1274.3 183.101 1275.25 172.851C1268.33 190.775 1255.83 202.942 1237.75 209.351C1218.83 212.308 1204.66 205.474 1195.25 188.851C1186.82 170.398 1185.48 151.398 1191.25 131.851C1201.35 105.718 1219.85 96.5507 1246.75 104.351C1260.74 110.012 1271.24 119.512 1278.25 132.851C1277.52 98.4687 1260.02 83.9687 1225.75 89.3507C1215.67 90.4327 1206.34 93.5997 1197.75 98.8507C1196.58 87.1987 1196.42 75.5317 1197.25 63.8507C1206.22 60.1537 1215.39 57.4877 1224.75 55.8507ZM1234.75 132.851C1250.88 132.085 1263.88 138.085 1273.75 150.851C1267.47 163.63 1257.8 172.797 1244.75 178.351C1231.45 179.41 1223.62 173.243 1221.25 159.851C1219.93 147.816 1224.43 138.816 1234.75 132.851Z" fill="#BA8350"/>
<path fill-rule="evenodd" clip-rule="evenodd" d="M1390.82 64.0204C1413.08 60.8944 1427.91 69.8944 1435.32 91.0204C1437.83 98.8974 1439.83 106.897 1441.32 115.02C1443.74 100.759 1449.07 87.7594 1457.32 76.0204C1467.55 65.1674 1480.05 61.3334 1494.82 64.5204C1508.3 69.6174 1517.14 79.1174 1521.32 93.0204C1523.95 101.156 1525.62 109.49 1526.32 118.02C1526.82 148.685 1526.99 179.352 1526.82 210.02C1515.82 210.02 1504.82 210.02 1493.82 210.02C1493.99 179.018 1493.82 148.018 1493.32 117.02C1492.08 99.8254 1483.25 93.6584 1466.82 98.5204C1456.76 105.453 1450.26 114.953 1447.32 127.02C1444.43 138.505 1442.76 150.172 1442.32 162.02C1441.82 178.017 1441.65 194.017 1441.82 210.02C1430.82 210.02 1419.82 210.02 1408.82 210.02C1409.24 177.662 1408.74 145.329 1407.32 113.02C1402.75 96.8244 1392.92 92.6574 1377.82 100.52C1369.63 108.398 1364.13 117.898 1361.32 129.02C1359.24 137.569 1357.91 146.236 1357.32 155.02C1356.82 173.35 1356.65 191.684 1356.82 210.02C1345.82 210.02 1334.82 210.02 1323.82 210.02C1323.82 164.02 1323.82 118.02 1323.82 72.0204C1339.17 71.6874 1354.5 72.0214 1369.82 73.0204C1364.17 80.8124 1361 89.4784 1360.32 99.0204C1364.51 81.8814 1374.67 70.2144 1390.82 64.0204Z" fill="#BA8350"/>
</svg>
